<svg preserveAspectRatio="none" overflow="visible" style="display: block;" width="15" height="15" viewBox="0 0 15 15" fill="none" xmlns="http://www.w3.org/2000/svg">
<g id="Frame">
<path id="Vector" d="M9.375 2.5C9.375 1.46447 8.53553 0.625 7.5 0.625C6.46447 0.625 5.625 1.46447 5.625 2.5V6.25C5.625 7.28553 6.46447 8.125 7.5 8.125C8.53553 8.125 9.375 7.28553 9.375 6.25V2.5Z" stroke="#6B675F" stroke-width="1.25"/>
<path id="Vector_2" d="M3.125 6.25V7.5C3.125 8.66032 3.58594 9.77312 4.40641 10.5936C5.22688 11.4141 6.33968 11.875 7.5 11.875C8.66032 11.875 9.77312 11.4141 10.5936 10.5936C11.4141 9.77312 11.875 8.66032 11.875 7.5V6.25" stroke="#6B675F" stroke-width="1.25" stroke-linecap="round"/>
<path id="Vector_3" d="M7.5 11.875V13.75" stroke="#6B675F" stroke-width="1.25" stroke-linecap="round"/>
</g>
</svg>
